<?xml version="1.0" encoding="UTF-8"?>
<svg id="Layer_1" xmlns="http://www.w3.org/2000/svg" version="1.1" viewBox="0 0 1920 1480">
  <!-- Generator: Adobe Illustrator 29.3.1, SVG Export Plug-In . SVG Version: 2.1.0 Build 151)  -->
  <defs>
    <style>
      .st0 {
        fill: none;
        stroke: #fff;
        stroke-dasharray: 4 2;
        stroke-miterlimit: 4;
        stroke-width: 2px;
      }

      .st1 {
        font-family: MarkerFelt-Wide, 'Marker Felt';
        font-size: 91.7px;
      }

      .st1, .st2, .st3 {
        isolation: isolate;
      }

      .st1, .st3 {
        fill: #fff;
      }

      .st4 {
        fill: #c6c2b3;
      }

      .st5 {
        fill: #eae8bc;
      }

      .st6 {
        fill: purple;
      }

      .st3 {
        opacity: .8;
      }
    </style>
  </defs>
  <g>
    <g>
      <g>
        <g>
          <path class="st5" d="M437.88,666.16c.34-1.6,2.32-4.97,4.38-7.33,2.09-2.4,1.85-6.04-.55-8.13-1.68-1.47-3.96-1.72-5.9-.96,20.66-13.55,44.77-39.08,64.46-62.26-17.87,30.2-38.15,58.62-59.7,79.34-.61.08-1.7.08-2.69-.65h0Z"/>
          <path class="st5" d="M434.31,221.28c-2.16,1.21-4.31,2.48-6.42,3.81-2.68-2.9-6.03-5.55-10.21-7.69-2.37-1.21-5.16-1.68-8.21-1.59,4.67-3.66,10.99-6.47,17.64-6.69,2.64-.09,3.81.8,4.46,1.48,2.64,2.73,2.86,8.77,2.73,10.67h0s0,0,0,0Z"/>
          <path class="st5" d="M433.55,651.18v-.02c.25-.16.52-.33.79-.5-.25.2-.53.33-.74.57,0-.02-.02-.04-.04-.05h0s0,0,0,0Z"/>
          <g>
            <path class="st5" d="M428.94,673.58c.65.71,1.33,1.31,2.04,1.83-.62.52-1.23,1.07-1.85,1.57l-60.4-54.89,6.35-7.96,50.75,45.62c.52.48,1.13.8,1.74,1.05-1.79,4.6-1.93,9.25,1.36,12.78h0Z"/>
            <path class="st5" d="M539.62,774.34l-7.25,6.58-9.04-8.49c3.32-1.08,6.7-2.23,10.12-3.48l6.16,5.4h0Z"/>
          </g>
          <path class="st5" d="M431.74,407.51c-4.38,2.23-11.62.58-22.79-5.19-8.33-4.3-10.07-8.98-10.06-12.15,0-3.54,2.23-6.7,6.09-8.67,4.06-2.07,9.42-2.52,14.69-1.24,13.22,3.21,16.32,14.45,16.12,19.91-.1,4.41-2.25,6.42-4.04,7.34h0Z"/>
          <path class="st5" d="M252.66,716.5h.02c-.42.4-3.72,4.05-3.59,9.44.06,2.57.96,6.4,4.91,10.08l170.09,156.24c1.79,1.66,4.39,1.98,6.51.9.29-.15.57-.32.85-.53l116.78-87.56c1.37-1.02,2.21-2.59,2.3-4.29.1-1.7-.56-3.35-1.81-4.52l-7.89-7.41,11.36-10.31c1.22-1.1,1.9-2.68,1.89-4.32-.02-1.65-.73-3.21-1.97-4.29l-6.49-5.69c11.36-4.65,23.12-10.09,35.05-16.16,14.22-7.23,28.67-15.36,43.02-24.07-.15,3.95-.5,9.77-1.34,18.48-1.27,13.13-2.93,49.82,10.57,90.76-47.22,22.78-78.06,92.51-84.82,109-6.71.83-20.03,3.92-25.08,15.24-6.21,13.9,9.78,31.28,27.26,41.54,8.42,4.94,16.69,7.81,22.59,9.46-3.15,5.03-5.89,8.82-7.78,10.06-10.13-2.94-27.14.04-37.16,9.24-7,6.42-9.26,14.79-6.37,23.59,7.64,23.24,49.21,86.11,115.45,83.19,9.52-.41,27.81-10.41,62-29.52,39.18-21.9,87.9-49.13,130.98-62.56,41.65-12.97,87.33-29.08,130.28-50.94,39.17-19.93,102.29-54.28,139.47-121,34.87-62.57,30.5-125.26,27.33-163.56-38.36-127.86-138.35-286.65-205.57-346.49-43.81-38.31-123.24-94.96-242.98-135.68-68.47-23.29-161.61-42.24-233.01-9.3-.55-4.05-1.96-9.11-5.6-12.91-3.33-3.48-7.9-5.22-13.2-5.04-15.74.54-31.39,11.35-35.34,23.85-7.37,3.96-14.55,9.63-19.93,15.79-11.41,13.05-13.75,26.57-6.43,37.08,1.97,2.83,3.88,5.22,5.72,7.32-9.11,16.5-14.02,34.18-14.5,52.65-.63,24.23,6.21,41.4,12.24,56.55,5.83,14.63,10.86,27.26,9.13,44.2-.79,7.75-2.52,14.21-4.19,19.98l-1,1.17c-5.3,6.15-10.08,12.86-9.38,20.18.47,4.82,3.33,9.33,8.52,13.43,4.19,3.31,14.02,7.91,20.57,8.51,22.63,12.47,64.33,29.88,109.4-6.89,16.28-13.31,37.93-6.77,47.07-1.61-5.35,12.95-11.55,26.97-18.47,41.43-.25.24-.53.4-.74.68-.65.89-64.02,88.28-104.88,111.16l-46.29-41.61c-1.18-1.05-2.75-1.58-4.33-1.46-1.58.13-3.04.91-4.03,2.15l-9.71,12.17-6.53-5.93c-1.15-1.05-2.67-1.58-4.23-1.49-1.55.1-3,.82-4.01,1.99l-92.74,107.6h0ZM425.83,659.75h0c.52.48,1.13.8,1.74,1.05-1.79,4.61-1.93,9.25,1.36,12.78.66.7,1.33,1.31,2.04,1.83-.61.51-1.23,1.07-1.85,1.57l-60.4-54.89,6.35-7.96,50.75,45.62h0ZM433.52,651.15h0c.27-.16.54-.33.81-.5-.24.2-.53.33-.74.57,0-.02-.04-.05-.04-.05v-.02s-.02,0-.02,0ZM435.81,649.74h0c20.66-13.55,44.76-39.07,64.46-62.26-17.87,30.2-38.16,58.63-59.7,79.34-.62.08-1.71.09-2.69-.65.34-1.6,2.32-4.97,4.38-7.33,2.09-2.4,1.85-6.04-.55-8.13-1.68-1.47-3.96-1.72-5.9-.96h0ZM431.58,210.59h0c2.64,2.73,2.86,8.77,2.73,10.68h0c-2.17,1.22-4.3,2.49-6.42,3.81-2.68-2.9-6.03-5.55-10.21-7.69-2.37-1.21-5.16-1.68-8.21-1.59,4.67-3.66,10.99-6.47,17.64-6.69,2.64-.08,3.81.8,4.46,1.48h0ZM587.8,982.03c-2.91,5.37-5.93,10.95-8.85,16.12-4.95-1.18-13.87-3.82-22.83-9.08-14.59-8.56-25.14-21.13-22.57-26.89,3.1-6.93,14.8-8.65,18.66-8.71,2.36-.03,4.47-1.5,5.31-3.71.33-.84,31.61-81.43,79.36-105.58h0c4.69,11.94,10.76,24.07,18.58,35.98M1050.43,557.57c27.97,51.82,44.85,99.31,55.32,136.07,5.92,16.91,13.06,44.18,11.09,77.64-2.78,47.42-22.39,80.92-30.88,95.34-54.16,92-169.12,137.46-263.23,166.78-44.24,13.79-93.55,41.36-133.18,63.5-25.53,14.29-49.65,27.75-56.88,28.07-59.57,2.63-97.07-54.26-103.99-75.28-1.47-4.47-.45-8.12,3.21-11.47,7.34-6.73,21.61-8.67,27-6.36.83.36,1.74.52,2.65.45,6.77-.44,12.29-6.98,20.95-21.86.51-.57.91-1.25,1.17-2.01,3.04-5.32,6.47-11.61,10.45-18.98,12.17-22.48,27.31-50.47,47.9-78.93,40.81-56.43,108.32-62.68,109-62.73,3.16-.25,5.53-3.04,5.27-6.22-.26-3.18-3.04-5.53-6.21-5.28-2.41.2-48.79,4.42-89.72,38.06-34.4-53.46-32-111.87-30.37-128.82,1.59-16.45,1.57-23.78,1.41-26.73,62.61-39.52,121.02-88.7,143.84-121.87,1.8-2.62,1.14-6.21-1.48-8.02s-6.21-1.14-8.02,1.48h0s0-.05,0-.05c-41.78,60.76-210.3,178.21-290.28,181.28-40.79,1.55-62.69-19.65-69.05-38.29-4.51-13.23-1.85-25.79,6.78-32.13,67.4-38.23,127.54-163.29,152.48-231.23,20.87-56.87,57.6-76.35,57.97-76.54,2.82-1.46,3.94-4.93,2.49-7.76-1.45-2.83-4.91-3.95-7.74-2.51-1.66.85-41.02,21.44-63.55,82.84-1.73,4.71-3.65,9.71-5.7,14.92-13.16-6.88-38.8-12.81-58.72,3.44-37.61,30.68-71.07,19.23-93.04,7.63-.94-1.56-2.2-3.47-3.9-5.86-4.37-6.13-6.39-12.82-8.16-18.72-1.1-3.66-2.14-7.12-3.63-10.04l-.14-.28c1.49-5.41,2.97-11.71,3.72-18.99,2.02-19.75-3.76-34.27-9.88-49.65-5.9-14.81-12-30.12-11.43-51.99.41-15.64,4.34-30.69,11.68-44.82,5.91,4.3,10.15,4.97,11.34,5.06,1.1.08,2.14-.14,3.05-.6,1.73-.88,2.98-2.62,3.14-4.7.24-3.18-2.14-5.95-5.31-6.2.02-.01-7.35-1.46-17.18-15.59-5.54-7.96,1.16-17.76,5.64-22.9,11.02-12.62,27.67-19.5,32.28-17.14,15.44,7.91,14.71,26.55,14.67,27.34-.15,3.17,2.29,5.89,5.46,6.05s5.88-2.25,6.06-5.42c.05-.67.49-10.7-4.33-20.95,55.24-10.74,117.07-53.74,264.75,7.7,127.28,52.95,193.86,102.47,249.66,161.92,21.93,23.36,64.62,75.48,105.58,151.35ZM532.37,780.92h0l-9.04-8.49c3.32-1.08,6.69-2.23,10.12-3.48l6.16,5.4-7.25,6.58h0ZM261.81,727.56h0c-.75-.7-1.2-1.4-1.21-1.89-.01-.61.55-1.39.55-1.39l89.11-103.38,69.42,63.08c-2.86,1.96-5.73,3.82-8.62,5.44-.18.1-.35.21-.52.33-13.05,9.31-17.46,27.14-11.22,45.41,7.64,22.38,33.28,47.89,80.42,46.08,9.34-.35,19.71-2.13,30.79-5.05l25.27,23.77-107.45,80.57-166.52-152.97h0Z"/>
        </g>
        <path class="st5" d="M374.37,469.3s2.63,1.48,2.27,4.47-2.94,7.12-4.84,3.4-.81-9.9,2.56-7.87Z"/>
      </g>
      <g>
        <polygon class="st5" points="363.12 701.25 332.97 732.12 318.91 718.49 347.89 686.72 363.12 701.25"/>
        <path class="st5" d="M306.61,714.85h0c-2.1,2.3-1.99,5.86.25,8.03l22.21,21.53c1.81,1.76,4.49,2.09,6.63,1,.55-.28,1.06-.65,1.52-1.11l38.23-39.15c1.07-1.11,1.66-2.59,1.63-4.13-.02-1.54-.67-3-1.78-4.07l-23.71-22.64c-1.12-1.07-2.63-1.65-4.18-1.59s-3.02.73-4.06,1.87l-36.73,40.26h0ZM332.97,732.12h0l-14.06-13.63,28.98-31.77,15.22,14.54-30.14,30.87h0Z"/>
      </g>
    </g>
    <path class="st5" d="M431.74,407.51c-4.38,2.23-11.62.58-22.79-5.19-8.33-4.3-10.07-8.98-10.06-12.15,0-3.54,2.23-6.7,6.09-8.67,4.06-2.07,9.42-2.52,14.69-1.24,13.22,3.21,16.32,14.45,16.12,19.91-.1,4.41-2.25,6.42-4.04,7.34h0Z"/>
  </g>
  <g>
    <g>
      <path class="st4" d="M975.48,386.3c.75-3.13,1.93-6.53,3.36-8.3,1.08.65,2.72,2.28,4.04,3.96-.78,1.95-1.49,3.95-2.15,5.99-1.67-.61-3.43-1.19-5.25-1.66h0Z"/>
      <polygon class="st4" points="1196.55 251.42 1206.59 235.9 1209.98 237.8 1200.9 253.94 1196.55 251.42"/>
      <path class="st4" d="M955.9,389.48h0s-7.38,14.95-6.72,24.84c.58,8.71,3.61,15.8,8.54,19.94,5.28,4.45,12.56,4.48,19.31,3.01.55,3.72,1.21,7.47,2.11,11.25,2.59,13.29,16.48,37.51,28.74,58.9,4.78,8.33,9.29,16.2,12.11,21.74.75,1.48,2.33,5.36,4.33,10.27,52.34,128.67,143.82,272.05,282.47,224.46,35.07-13.86,51.52-26.91,66.03-38.42,11.34-9,21.13-16.77,37.95-22.91,14.67-5.35,26.46-7.37,35.94-8.99,8.2-1.4,15.5-2.65,21.7-5.8,5.49-2.79,10.12-7.08,13.76-14.29,9.33-18.48,15.54-63.9,5.04-80.82-3.1-5.02-7.74-7.76-13.03-7.72-9.48.07-17.37,5.69-21.44,9.28-3.25-1.23-8.56-3.12-15.25-5.2,1.25-1.42,2.34-3.17,3.12-5.36,4.99-13.93,6.83-46.42-3.73-54.24-5-3.69-11.28-3.41-17.17.8-1.75,1.25-3.22,2.64-4.3,3.79-3.11-.13-10.54-.65-27.56-2.56-38.33-4.13-59.75,8.07-67.21,13.51-2.98-2.25-6.16-4.51-9.62-6.74-28.76-18.52-51.9-37.19-59.87-46.2,7.03-15.18,14.41-34.5,17.94-54.76,4.04-23.15,6.03-55.25,2.99-81.69,1.38.67,2.95.76,4.4.26.24-.08.48-.18.71-.3,1.14-.58,2.05-1.52,2.6-2.69l2.08-4.43,5.79,2.9c1.44.73,3.12.81,4.63.24.2-.07.38-.16.57-.25,1.24-.63,2.21-1.69,2.74-2.99,5-12.47,30.02-75,31.41-81.77,1.16-5.65-2.4-10.09-6.69-11.75-7.15-3.86-112.3-60.57-119.84-64.59-4.82-2.57-8.55-2.24-10.83-1.5-2.86.92-4.84,2.91-5.85,4.63l-50.64,73.22c-.96,1.38-1.26,3.09-.85,4.71.41,1.62,1.51,2.98,3,3.73l2.89,1.45-1.41,4.19c-.9,2.67.25,5.58,2.72,6.92l44.13,23.89c-5.68,29.5-16.22,52.91-24.9,68.39.66-15.2-1.54-33.56-12.86-46.9l-3.73-4.42c-2.13-2.52-4.15-4.92-6.11-7.16-.5-2.52-2.31-9.21-8.21-14.8-3.25-3.08-11.89-11.26-22.05-6.09-2.33,1.19-4.56,3.04-6.64,5.5-2.14,2.54-4.05,5.2-4.73,7.91-8.42,5.42-17.35,10.66-31.97,8.09-17.74-3.11-54.78,13.85-74.23,48.8-2.31-2.11-5.23-4.03-8.47-4.46-2.89-.39-5.69.48-7.92,2.4-4.88,4.25-7.08,12.04-8,16.72-3.02.5-5.79,1.71-7.95,4.06h0ZM978.85,378.02h0c1.08.65,2.73,2.27,4.04,3.96-.78,1.95-1.49,3.95-2.15,5.99-1.66-.62-3.42-1.19-5.25-1.66.74-3.14,1.92-6.53,3.36-8.3h0ZM1193.45,321.16c2.89.79,5.89-.73,6.93-3.51.06.18.09.37.15.55-1.16,2.95-2.19,6.1-2.96,9.58-9.65,43.5-26.02,73.1-36.57,86.99-2.28-2.67-4.29-5.95-5.61-8.4h0M1258.43,314.71h0c-12.6-13.98-26.06-19.97-37.9-16.85-2.6.68-5.01,1.82-7.26,3.3l-66.85-33.49,46.97-67.91c.32.07.88.24,1.65.65,7.73,4.12,119.03,64.15,120.15,64.76.07.03.13.07.2.1-2.42,7.83-17.43,46.01-28.19,72.94l-21.49-10.77c-1.99-5.1-4.37-9.49-7.29-12.73h0ZM1422.69,543.21c1.04-1.39,5.39-5.94,7.31-4.51l.03.02c3.52,3.35,4.69,27.2-.27,41.07-1.09,3.04-3.9,3.63-9.39,3.79-.79.02-1.51.04-2.11.08-.08,0-.16.05-.24.06-19.6-4.6-43.83-8-65.65-4.54-2.15-3.73-8.98-14.49-22.43-26.55M965.14,425.44v.02c-2.42-2.05-4.08-6.49-4.44-11.88-.5-7.39,1.56-13.91,3.74-16.31,1.85-2.03,12.26.67,20.64,5.36,2.79,1.56,6.3.55,7.85-2.22,1.43-2.57.62-5.7-1.7-7.4,12.91-41.78,54.39-62.28,69.24-59.67,19.21,3.38,31.56-4.15,40.63-10.03,1.43.21,2.83.2,3.95.18h1.14c4.36.03,8.65,2.1,12.43,3.92,3.44,1.67,6.75,3.26,10,3.04,1.45,1.68,3,3.5,4.7,5.52l3.76,4.46c18.49,21.79,6.31,63.66,6.19,64.08-.39,1.32-.3,2.76.27,4.02.48,1.05,4.17,8.89,9.7,14.87-4.92,4.67-10.45,8.89-15.47,12.68-10.11,7.64-18.84,14.24-20.13,22.77-.47,3.15,1.69,6.08,4.85,6.56,3.14.48,6.08-1.69,6.56-4.85.59-3.89,8.26-9.68,15.68-15.29,6.73-5.08,14.35-10.83,20.75-17.83,2.93-3.22,29.16-33.25,43.33-97.15,1.8-8.13,4.82-14.16,8.7-17.78.17-.12.31-.27.46-.42,1.69-1.47,3.52-2.54,5.5-3.06,7.34-1.93,16.96,2.95,26.39,13.42,13.79,15.31,15.19,70.71,7.84,112.85-3.43,19.68-10.91,38.78-17.87,53.52-.7.83-1.18,1.78-1.33,2.83-7.18,14.81-13.45,24.54-13.57,24.73-1.73,2.66-.98,6.24,1.69,7.98,1.79,1.17,3.99,1.21,5.77.31.87-.44,1.64-1.12,2.21-1.99.45-.69,5.21-8.09,11.13-19.58,12.58,12.56,37.69,31.11,59.03,44.84,20.19,13.01,31.2,27.23,35.67,33.94-4.11,1.24-8.07,2.78-11.83,4.69-45.55,23.17-62.84,48.99-63.55,50.08-1.76,2.66-1.01,6.24,1.65,7.98,2.66,1.75,6.23,1.01,7.98-1.64.2-.29,17.34-24.86,59.15-46.13,41.81-21.27,117.32,9.12,118.08,9.43,2.27.93,4.9.32,6.52-1.54.06-.07,7.41-8.2,15.82-8.27.61,0,1.74-.02,3.16,2.27,7.4,11.93,2.88,52.85-5.54,69.54-5.12,10.16-12.02,11.34-27.11,13.93-9.94,1.69-22.3,3.81-37.95,9.53-18.56,6.79-29.55,15.49-41.16,24.71-13.89,11.01-29.65,23.5-62.86,36.64-129.87,44.57-217.33-93.92-267.79-217.98-2.26-5.57-3.75-9.25-4.73-11.15-2.95-5.8-7.32-13.42-12.38-22.25-10.64-18.55-25.2-43.95-27.47-55.59-1.02-4.35-1.71-8.5-2.24-12.57,1.34-.59,2.54-1.16,3.54-1.68,1.22-.62,2.17-1.15,2.76-1.49,2.76-1.58,3.72-5.1,2.14-7.87s-5.14-3.73-7.87-2.14c-7.42,4.23-19.73,8.34-23.61,5.09h0Z"/>
      <path class="st4" d="M1054.45,358.92c2.49-1.27,5.24-1.32,7.54-.15,4.06,2.08,7.46,4.76,8.94,6.01,3.25,1.54,5.27,4.24,5.45,7.4.2,3.31-1.69,6.41-4.94,8.06-4.75,2.41-11.33,1.52-18.06-2.48-3.41-2.02-5.3-5.32-5.19-9.05.13-4.03,2.64-7.96,6.27-9.8h0s0,0,0,0Z"/>
      <path class="st4" d="M1205.68,267.02h-.02c1.01-.5,1.85-1.3,2.42-2.31l14.77-26.27c1.57-2.78.58-6.3-2.2-7.86l-13.13-7.39c-2.65-1.49-6.01-.66-7.67,1.9l-16.27,25.16c-.86,1.33-1.13,2.94-.76,4.48.37,1.54,1.35,2.85,2.72,3.64l14.63,8.49c1.33.77,2.92.98,4.41.58.38-.11.75-.25,1.1-.42h0ZM1206.59,235.91h0l3.38,1.9-9.08,16.14-4.34-2.52,10.04-15.53h0Z"/>
    </g>
    <path class="st4" d="M1108.76,306.14s-2.43,2.47-1.76,4.3c.98,2.67,3.72-.67,4.74-2.9,1.03-2.23-1.32-2.5-2.98-1.41h0Z"/>
  </g>
  <g>
    <path class="st6" d="M356.38,1080.36c477.04-151.88,900.59-396.42,1270.65-733.61,68.78,119.12-85.69,340.66-463.38,664.61-469.4,165.12-738.49,188.12-807.26,69Z"/>
    <path class="st0" d="M356.38,1080.36c477.04-151.88,900.59-396.42,1270.65-733.61"/>
    <path class="st0" d="M356.38,1080.36c68.78,119.12,337.86,96.12,807.26-69,377.7-323.95,532.16-545.49,463.38-664.61"/>
    <path class="st3" d="M538.14,1028.36l-1.76-12.22,9.7,7.63,9.93-5.73-4.5,10.54,9.7,7.63-13.37-.22-6.49,11.69-1.76-12.22-11.38-1.37,9.93-5.73Z"/>
    <path class="st3" d="M1491.13,478.16l-1.76-12.22,9.7,7.63,9.93-5.73-4.5,10.54,9.7,7.63-13.37-.22-6.49,11.69-1.76-12.22-11.38-1.37,9.93-5.73Z"/>
    <path class="st3" d="M1129.26,951.8l-1.76-12.22,9.7,7.63,9.93-5.73-4.5,10.54,9.7,7.63-13.37-.22-6.49,11.69-1.76-12.22-11.38-1.37,9.93-5.73Z"/>
    <g class="st2">
      <text class="st1" transform="translate(676.45 1094.16) rotate(-30)"><tspan x="0" y="0">¡Aventuras lingüísticas!</tspan></text>
    </g>
  </g>
</svg>